<svg xmlns="http://www.w3.org/2000/svg" xmlns:xlink="http://www.w3.org/1999/xlink" viewBox="0 0 109 27">
    <g transform="translate(1.035 6.798) rotate(-2 8.5 9)" id="ss2849785087_1">
        <g>
            <defs>
                <path d="M 3.895 0.224 C 4.066 -0.012 4.375 -0.067 4.614 0.085 C 5.434 0.61 7.327 1.72 9.058 2.001 C 10.896 2.3 14.384 1.863 15.685 1.679 C 15.874 1.652 16.001 1.886 15.889 2.053 L 12.223 7.499 C 12.092 7.694 11.909 7.839 11.694 7.903 C 10.842 8.154 8.436 8.747 5.808 8.36 C 3.367 8.001 1.205 6.831 0.257 6.256 C -0.019 6.088 -0.082 5.697 0.113 5.429 Z M 13.067 17.777 C 12.903 18.003 12.611 18.064 12.377 17.928 C 11.493 17.417 9.331 16.248 7.557 15.96 C 5.742 15.665 2.547 16.099 1.303 16.291 C 1.113 16.32 0.983 16.084 1.096 15.916 L 4.742 10.499 C 4.882 10.292 5.079 10.141 5.309 10.081 C 6.243 9.836 8.894 9.247 11.534 9.636 C 13.961 9.993 15.915 11.143 16.767 11.717 C 17.025 11.89 17.074 12.262 16.887 12.52 Z" id="a1000z"></path>
                <filter id="a1002z" x="-26.4%" y="-30.9%" width="152.2%" height="161.3%" filterUnits="objectBoundingBox">
                    <feOffset dx="0" dy="1.08" in="SourceAlpha" result="a1004z"></feOffset>
                    <feGaussianBlur stdDeviation="1.075" in="a1004z" result="a1005z"></feGaussianBlur>
                    <feColorMatrix color-interpolation-filters="sRGB" values="0 0 0 0 0   0 0 0 0 0   0 0 0 0 0  0 0 0 0.25 0" type="matrix" in="a1005z" result="a1006z"></feColorMatrix>
                </filter>
            </defs>
            <g filter="url(#a1002z)">
                <use fill="black" fill-opacity="1" stroke="black" stroke-opacity="0" stroke-width="0" xlink:href="#a1000z" clip-path="url(#a1001z)"></use>
            </g>
            <use xlink:href="#a1000z" fill="#F1F5F9" clip-path="url(#a1001z)"></use>
        </g>
    </g>
    <g transform="translate(23.91 2.184)" id="ss2849785087_10">
        <path d="M -0 18.886 L 6.258 11.086 L 7.879 9.67 L -0 9.67 L -0 6.05 L 12.453 6.05 L 12.453 9.67 L 6.258 17.602 L 4.67 18.886 L 12.453 18.886 L 12.453 22.506 L -0 22.506 Z" fill="#F1F5F9"></path>
        <path d="M 15.281 7.004 C 16.128 6.61 17.134 6.302 18.299 6.083 C 19.464 5.842 20.682 5.721 21.952 5.721 C 23.054 5.721 23.975 5.864 24.716 6.149 C 25.458 6.412 26.04 6.796 26.464 7.301 C 26.908 7.805 27.216 8.409 27.385 9.111 C 27.576 9.813 27.671 10.603 27.671 11.48 C 27.671 12.446 27.639 13.422 27.576 14.41 C 27.512 15.375 27.47 16.33 27.448 17.273 C 27.448 18.216 27.48 19.138 27.544 20.038 C 27.607 20.915 27.766 21.749 28.02 22.539 L 24.653 22.539 L 23.986 20.268 L 23.827 20.268 C 23.403 20.948 22.81 21.541 22.048 22.045 C 21.307 22.528 20.343 22.769 19.157 22.769 C 18.416 22.769 17.748 22.66 17.155 22.44 C 16.562 22.199 16.054 21.87 15.63 21.453 C 15.207 21.014 14.879 20.509 14.646 19.939 C 14.413 19.346 14.296 18.688 14.296 17.964 C 14.296 16.955 14.508 16.11 14.932 15.43 C 15.376 14.728 16.001 14.168 16.806 13.751 C 17.632 13.313 18.606 13.016 19.729 12.863 C 20.872 12.687 22.143 12.632 23.541 12.698 C 23.689 11.469 23.604 10.592 23.287 10.065 C 22.969 9.517 22.26 9.242 21.158 9.242 C 20.332 9.242 19.453 9.33 18.521 9.506 C 17.611 9.681 16.859 9.912 16.266 10.197 Z M 20.523 19.248 C 21.349 19.248 22.005 19.061 22.493 18.688 C 22.98 18.293 23.34 17.876 23.573 17.438 L 23.573 15.298 C 22.916 15.232 22.281 15.221 21.667 15.265 C 21.074 15.309 20.544 15.408 20.078 15.562 C 19.612 15.715 19.242 15.935 18.966 16.22 C 18.691 16.505 18.553 16.867 18.553 17.306 C 18.553 17.92 18.723 18.403 19.062 18.754 C 19.422 19.083 19.909 19.248 20.523 19.248 Z" fill="#F1F5F9"></path>
        <path d="M 40.858 22.506 L 40.858 13.159 C 40.858 11.821 40.667 10.855 40.286 10.263 C 39.926 9.67 39.301 9.374 38.412 9.374 C 37.628 9.374 36.961 9.615 36.41 10.098 C 35.881 10.559 35.5 11.14 35.267 11.843 L 35.267 22.506 L 31.137 22.506 L 31.137 6.05 L 34.409 6.05 L 34.885 8.222 L 35.012 8.222 C 35.5 7.52 36.146 6.906 36.95 6.379 C 37.755 5.853 38.793 5.589 40.064 5.589 C 40.847 5.589 41.546 5.699 42.16 5.918 C 42.775 6.138 43.294 6.5 43.717 7.004 C 44.141 7.509 44.458 8.2 44.67 9.078 C 44.882 9.934 44.988 10.998 44.988 12.27 L 44.988 22.506 Z" fill="#F1F5F9"></path>
        <path d="M 48.83 6.05 L 52.96 6.05 L 52.96 22.506 L 48.83 22.506 Z" fill="#F1F5F9"></path>
        <path d="M 56.884 7.004 C 57.732 6.61 58.738 6.302 59.902 6.083 C 61.068 5.842 62.285 5.721 63.556 5.721 C 64.657 5.721 65.579 5.864 66.32 6.149 C 67.061 6.412 67.644 6.796 68.067 7.301 C 68.512 7.805 68.819 8.409 68.988 9.111 C 69.179 9.813 69.274 10.603 69.274 11.48 C 69.274 12.446 69.242 13.422 69.179 14.41 C 69.115 15.375 69.073 16.33 69.052 17.273 C 69.052 18.216 69.084 19.138 69.147 20.038 C 69.211 20.915 69.37 21.749 69.624 22.539 L 66.256 22.539 L 65.589 20.268 L 65.43 20.268 C 65.007 20.948 64.414 21.541 63.651 22.045 C 62.91 22.528 61.946 22.769 60.76 22.769 C 60.019 22.769 59.352 22.66 58.759 22.44 C 58.166 22.199 57.658 21.87 57.234 21.453 C 56.811 21.014 56.482 20.509 56.249 19.939 C 56.016 19.346 55.9 18.688 55.9 17.964 C 55.9 16.955 56.112 16.11 56.535 15.43 C 56.98 14.728 57.605 14.168 58.409 13.751 C 59.235 13.313 60.21 13.016 61.332 12.863 C 62.476 12.687 63.746 12.632 65.144 12.698 C 65.293 11.469 65.208 10.592 64.89 10.065 C 64.572 9.517 63.863 9.242 62.762 9.242 C 61.936 9.242 61.057 9.33 60.125 9.506 C 59.214 9.681 58.463 9.912 57.869 10.197 Z M 62.126 19.248 C 62.952 19.248 63.609 19.061 64.096 18.688 C 64.583 18.293 64.943 17.876 65.176 17.438 L 65.176 15.298 C 64.52 15.232 63.884 15.221 63.27 15.265 C 62.677 15.309 62.148 15.408 61.682 15.562 C 61.216 15.715 60.845 15.935 60.57 16.22 C 60.294 16.505 60.157 16.867 60.157 17.306 C 60.157 17.92 60.326 18.403 60.665 18.754 C 61.025 19.083 61.512 19.248 62.126 19.248 Z" fill="#F1F5F9"></path>
        <path d="M 48.754 3.509 L 53.193 2.541 L 53.193 1.089 L 53.193 0 L 48.754 1.089 L 48.754 2.541 Z" fill="#F1F5F9"></path>
    </g>
</svg>